<svg id="svg" version="1.1" xmlns="http://www.w3.org/2000/svg" xmlns:xlink="http://www.w3.org/1999/xlink" width="400" height="400" viewBox="0, 0, 400,400"><g id="svgg"><path id="path0" d="M169.800 8.834 C 154.898 9.242,152.247 9.800,149.000 13.215 C 146.230 16.129,142.411 17.369,131.873 18.777 C 124.575 19.752,120.400 21.445,120.400 23.428 C 120.400 25.066,116.803 27.177,111.889 28.422 C 107.896 29.434,102.977 31.721,102.375 32.847 C 100.806 35.779,97.292 38.245,93.366 39.169 C 90.382 39.872,89.026 40.871,87.523 43.474 C 86.133 45.883,85.572 46.280,80.160 48.679 C 78.948 49.217,77.169 50.593,75.588 52.215 C 74.165 53.676,71.560 56.091,69.800 57.583 C 65.234 61.453,60.843 65.908,57.428 70.137 C 55.802 72.152,53.650 74.480,52.646 75.311 C 50.587 77.016,49.105 79.327,47.905 82.702 C 46.762 85.914,45.885 87.006,43.628 88.026 C 41.255 89.099,40.182 90.462,39.425 93.368 C 38.216 98.011,36.212 101.099,33.156 103.028 C 31.383 104.147,29.795 107.150,29.150 110.608 C 27.847 117.576,26.806 119.427,22.436 122.543 C 20.206 124.133,19.726 125.471,18.975 132.200 C 17.617 144.371,16.220 149.600,13.559 152.468 C 8.569 157.845,8.398 159.697,8.591 206.200 C 8.737 241.531,8.891 243.026,12.762 246.604 C 15.920 249.523,17.548 255.421,19.202 269.933 C 19.715 274.434,20.684 276.662,22.701 277.978 C 26.329 280.345,27.545 282.346,28.772 287.969 C 30.041 293.783,30.868 295.219,34.719 298.299 C 36.374 299.622,39.200 304.529,39.200 306.080 C 39.200 307.879,40.834 310.661,42.461 311.632 C 45.452 313.417,46.732 314.773,47.587 317.057 C 49.193 321.350,49.942 322.379,53.009 324.501 C 53.884 325.107,55.500 326.714,56.600 328.071 C 62.463 335.307,69.301 334.340,78.200 325.014 C 80.180 322.939,83.001 320.287,84.469 319.121 C 85.937 317.954,88.219 315.650,89.540 314.000 C 90.861 312.350,92.971 310.190,94.229 309.200 C 95.487 308.210,97.460 306.220,98.614 304.777 C 102.551 299.854,104.288 298.604,109.429 296.999 C 114.829 295.314,114.145 295.114,119.764 300.021 C 121.984 301.960,125.060 304.642,126.600 305.981 C 129.164 308.211,130.808 309.166,137.213 312.144 C 138.430 312.710,140.692 314.133,142.241 315.307 C 145.734 317.953,147.809 318.855,154.511 320.642 C 160.072 322.124,167.358 324.250,172.400 325.860 C 190.055 331.499,215.124 331.311,233.400 325.404 C 236.480 324.408,241.070 323.069,243.600 322.428 C 253.411 319.942,257.984 318.185,262.400 315.204 C 263.610 314.388,267.029 312.487,269.998 310.980 C 274.431 308.731,275.970 307.702,278.614 305.221 C 280.385 303.559,283.176 301.335,284.817 300.279 C 289.598 297.200,290.272 295.699,289.425 290.028 C 288.783 285.731,288.157 284.501,285.502 282.324 C 284.346 281.376,281.420 278.602,279.000 276.160 C 276.580 273.719,273.919 271.218,273.086 270.602 C 272.253 269.987,270.429 268.113,269.032 266.438 C 267.635 264.763,265.475 262.584,264.232 261.596 C 262.990 260.608,260.733 258.252,259.217 256.360 C 256.269 252.680,255.296 252.029,250.851 250.757 C 245.230 249.150,242.970 249.822,237.971 254.586 C 234.698 257.705,232.622 258.688,224.471 260.980 C 222.551 261.520,219.361 262.587,217.384 263.350 C 208.427 266.809,198.520 266.981,188.600 263.849 C 185.300 262.807,180.800 261.407,178.600 260.738 C 171.808 258.674,167.873 256.201,161.269 249.849 C 156.826 245.576,157.147 244.367,164.068 239.287 C 165.316 238.371,167.116 236.672,168.068 235.511 C 169.020 234.350,171.601 231.600,173.803 229.400 C 176.005 227.200,178.475 224.590,179.291 223.600 C 180.106 222.610,182.100 220.720,183.721 219.400 C 185.342 218.080,187.373 216.109,188.234 215.019 C 189.095 213.929,193.990 208.823,199.112 203.671 C 204.234 198.520,209.034 193.561,209.780 192.653 C 210.526 191.744,212.305 190.034,213.734 188.852 C 215.163 187.671,217.267 185.539,218.409 184.113 C 221.245 180.574,227.770 173.836,232.600 169.459 C 236.711 165.733,242.668 158.989,243.825 156.751 C 244.710 155.039,244.373 153.708,242.154 150.147 C 238.071 143.596,236.338 142.390,227.000 139.601 C 223.920 138.681,219.764 137.233,217.764 136.383 C 212.746 134.250,207.603 133.467,200.013 133.681 L 194.200 133.845 185.600 136.692 C 180.870 138.258,176.010 139.848,174.800 140.225 C 171.128 141.370,168.385 142.958,163.993 146.480 C 161.687 148.329,158.501 150.871,156.912 152.128 C 154.646 153.923,152.788 156.068,148.270 162.107 C 141.176 171.590,141.614 170.710,138.998 180.714 C 137.806 185.271,136.373 190.517,135.815 192.370 C 134.278 197.474,134.354 203.655,136.019 209.051 C 136.690 211.223,138.053 216.121,139.049 219.936 C 141.432 229.066,141.667 229.554,147.164 236.794 C 152.372 243.654,152.800 244.328,152.800 245.679 C 152.800 247.795,147.603 255.181,143.938 258.274 C 142.035 259.881,139.573 262.346,138.467 263.752 C 137.362 265.159,135.026 267.460,133.276 268.867 C 131.526 270.273,129.261 272.408,128.243 273.612 C 127.224 274.815,125.013 276.970,123.329 278.400 C 119.885 281.325,117.643 284.317,116.379 287.673 C 114.830 291.785,113.563 291.996,110.956 288.578 C 110.353 287.787,108.731 286.335,107.353 285.351 C 104.127 283.049,101.409 280.047,99.402 276.569 C 98.523 275.046,96.694 272.609,95.338 271.154 C 92.693 268.316,91.932 267.029,90.226 262.506 C 89.626 260.914,88.129 257.944,86.900 255.906 C 83.577 250.395,82.586 248.030,80.389 240.365 C 79.290 236.534,77.599 231.060,76.630 228.200 C 73.897 220.132,73.415 215.966,73.411 200.400 C 73.407 183.977,74.026 178.898,76.989 171.041 C 77.562 169.523,79.018 164.843,80.225 160.641 C 82.512 152.679,83.733 149.629,86.146 145.857 C 87.963 143.017,89.518 139.881,91.154 135.762 C 92.102 133.374,93.074 131.810,94.856 129.802 C 96.186 128.305,98.223 125.607,99.383 123.808 C 102.873 118.398,117.906 103.138,123.800 99.021 C 125.340 97.946,127.230 96.493,128.000 95.794 C 130.603 93.428,132.351 92.339,136.282 90.629 C 138.437 89.692,142.092 87.677,144.403 86.152 C 148.503 83.446,150.901 82.358,155.800 80.981 C 157.120 80.610,161.620 79.075,165.800 77.570 C 178.394 73.034,183.938 72.211,201.800 72.221 C 218.890 72.230,228.363 73.618,237.221 77.409 C 239.060 78.196,242.733 79.475,245.382 80.250 C 251.737 82.110,255.035 83.527,258.092 85.708 C 259.477 86.696,262.895 88.590,265.687 89.915 C 270.591 92.244,271.840 93.082,278.463 98.496 C 281.820 101.241,291.593 106.719,293.758 107.071 C 295.483 107.351,296.873 106.529,299.000 103.972 C 299.880 102.914,302.077 100.855,303.883 99.396 C 305.689 97.938,308.102 95.590,309.246 94.180 C 310.391 92.770,312.701 90.535,314.381 89.215 C 316.061 87.894,318.311 85.622,319.380 84.166 C 320.449 82.709,322.671 80.369,324.316 78.965 C 326.902 76.759,333.450 68.922,334.772 66.452 C 335.568 64.964,335.206 63.869,332.451 59.429 C 330.938 56.993,329.363 54.402,328.951 53.671 C 328.476 52.830,327.098 51.676,325.200 50.527 C 320.892 47.921,316.802 44.499,316.800 43.499 C 316.799 42.494,311.633 39.521,307.872 38.360 C 303.695 37.072,303.404 36.874,299.960 32.976 C 298.698 31.548,298.269 31.328,292.200 28.997 C 286.295 26.729,284.434 25.663,282.821 23.626 C 281.090 21.441,278.262 20.218,272.600 19.204 C 259.948 16.938,256.933 15.942,253.800 12.990 C 250.468 9.852,247.334 9.263,231.600 8.816 C 218.692 8.450,183.478 8.461,169.800 8.834 " stroke="none" fill="#edba04" fill-rule="evenodd"></path><path id="path1" d="M133.600 1.200 C 133.600 2.286,133.476 2.401,132.300 2.406 C 126.284 2.433,119.325 3.312,113.400 4.791 C 106.449 6.527,106.186 6.688,105.769 9.468 C 105.379 12.069,104.679 12.618,101.086 13.141 C 97.663 13.639,96.311 14.198,94.743 15.766 C 94.172 16.338,93.095 17.009,92.352 17.258 C 90.253 17.961,88.528 19.441,87.747 21.211 C 87.332 22.152,86.694 22.905,86.217 23.016 C 85.768 23.120,84.021 23.463,82.335 23.777 C 76.828 24.803,75.160 26.228,73.980 30.912 L 73.522 32.731 70.890 33.190 C 65.938 34.052,64.350 35.590,63.214 40.622 L 62.758 42.643 60.007 43.289 C 55.550 44.335,54.076 45.895,53.139 50.560 C 52.734 52.576,52.594 52.778,51.449 52.995 C 45.523 54.115,43.871 55.771,42.966 61.500 C 42.766 62.769,42.516 63.200,41.979 63.200 C 40.037 63.200,37.152 64.224,35.888 65.361 C 34.460 66.647,33.967 67.808,33.198 71.700 C 32.909 73.161,32.543 74.000,32.195 74.000 C 31.893 74.000,30.388 74.466,28.850 75.036 L 26.055 76.072 25.071 78.936 C 24.142 81.638,23.493 84.713,22.845 89.479 C 22.573 91.478,21.554 93.198,20.638 93.202 C 16.274 93.224,13.757 96.632,12.970 103.582 L 12.704 105.936 10.482 106.668 C 7.789 107.555,6.948 108.599,6.345 111.800 C 6.097 113.120,5.487 115.010,4.990 116.000 C 3.846 118.280,3.328 120.806,3.020 125.600 C 2.455 134.402,2.472 134.321,1.171 134.606 L 0.000 134.864 0.000 200.400 L 0.000 265.936 1.148 266.189 C 2.428 266.470,2.798 267.848,2.802 272.356 C 2.806 276.090,3.935 282.449,4.976 284.600 C 5.509 285.700,6.154 287.543,6.411 288.695 C 7.048 291.558,8.031 292.670,10.576 293.410 L 12.700 294.028 12.962 296.514 C 13.768 304.158,15.435 306.494,20.721 307.387 C 22.318 307.657,22.367 307.712,22.608 309.532 C 22.744 310.559,23.100 312.750,23.399 314.400 C 23.698 316.050,24.060 318.120,24.204 319.000 C 24.706 322.064,27.103 325.600,28.677 325.600 C 28.971 325.600,29.523 325.769,29.905 325.976 C 30.287 326.183,31.089 326.454,31.686 326.580 C 32.563 326.764,32.852 327.133,33.195 328.504 C 34.310 332.969,34.564 333.655,35.413 334.497 C 37.198 336.265,37.768 336.567,40.147 336.997 L 42.555 337.433 43.322 340.590 C 44.458 345.269,47.266 347.570,51.868 347.595 C 52.529 347.599,52.796 347.911,52.984 348.900 C 54.155 355.062,56.723 357.568,61.892 357.595 C 62.495 357.598,62.844 357.892,62.967 358.500 C 63.068 358.995,63.262 359.940,63.398 360.600 C 64.249 364.705,66.224 366.499,70.712 367.240 C 73.581 367.714,73.586 367.717,73.843 369.157 C 74.751 374.236,76.841 376.000,83.155 377.017 C 87.308 377.685,87.600 377.791,87.600 378.624 C 87.600 379.296,90.592 382.400,91.240 382.400 C 92.136 382.400,94.378 383.699,94.585 384.339 C 94.997 385.612,97.331 386.725,100.600 387.208 C 104.696 387.812,104.896 387.927,105.527 390.037 C 106.484 393.236,106.700 393.538,108.382 394.042 C 109.272 394.308,110.000 394.658,110.000 394.818 C 110.000 394.978,110.855 395.237,111.900 395.394 C 112.945 395.551,114.121 395.851,114.513 396.060 C 115.880 396.792,121.842 397.608,127.700 397.865 C 133.548 398.123,133.600 398.133,133.600 399.062 L 133.600 400.000 204.400 400.000 L 275.200 400.000 275.200 399.042 C 275.200 398.120,275.337 398.075,278.900 397.821 C 284.555 397.418,291.784 396.394,291.933 395.975 C 292.007 395.769,292.308 395.600,292.603 395.600 C 293.316 395.600,295.600 393.290,295.600 392.569 C 295.600 392.256,295.780 392.000,296.000 392.000 C 296.220 392.000,296.400 391.698,296.400 391.328 C 296.400 389.422,297.335 388.047,298.772 387.840 C 299.557 387.727,302.405 387.325,305.100 386.947 C 307.795 386.568,310.000 386.111,310.000 385.929 C 310.000 385.748,310.462 385.600,311.027 385.600 C 312.360 385.600,315.600 382.305,315.600 380.950 C 315.600 380.427,315.757 380.000,315.950 380.000 C 316.143 380.000,316.401 379.497,316.524 378.882 C 316.734 377.832,316.934 377.734,319.874 377.250 C 324.734 376.450,326.744 374.531,327.522 369.947 C 327.801 368.307,327.917 368.180,329.410 367.868 C 333.258 367.065,335.634 366.216,336.443 365.354 C 336.923 364.844,338.234 364.128,339.357 363.763 C 342.020 362.898,343.000 361.958,343.618 359.672 C 344.254 357.320,344.572 356.914,346.028 356.594 C 346.672 356.452,347.200 356.187,347.200 356.003 C 347.200 355.820,347.965 355.542,348.900 355.386 C 349.835 355.230,350.690 354.989,350.800 354.851 C 350.910 354.713,351.519 354.309,352.153 353.953 C 352.788 353.598,353.598 352.788,353.953 352.153 C 354.309 351.519,354.713 350.910,354.851 350.800 C 354.989 350.690,355.233 349.790,355.393 348.800 C 355.689 346.971,356.907 345.200,357.870 345.200 C 358.161 345.200,358.400 345.027,358.400 344.815 C 358.400 344.604,359.165 344.228,360.100 343.980 C 362.401 343.369,363.451 342.289,364.010 339.957 C 364.269 338.879,364.642 337.897,364.840 337.775 C 365.038 337.653,365.200 337.225,365.200 336.825 C 365.200 336.425,365.460 335.882,365.778 335.618 C 366.475 335.040,367.441 332.106,367.793 329.500 C 367.986 328.065,368.218 327.600,368.740 327.600 C 373.518 327.600,376.646 324.850,377.384 320.000 C 377.846 316.970,377.944 316.818,379.627 316.549 C 380.492 316.411,381.200 316.160,381.200 315.992 C 381.200 315.824,381.665 315.570,382.233 315.428 C 383.358 315.145,385.023 313.471,385.443 312.200 C 385.589 311.760,385.858 311.303,386.042 311.184 C 386.226 311.065,386.555 309.535,386.774 307.784 C 387.527 301.746,388.021 298.199,388.170 297.774 C 388.251 297.539,389.327 297.105,390.559 296.810 C 391.792 296.514,392.800 296.121,392.800 295.936 C 392.800 295.751,393.004 295.600,393.254 295.600 C 395.618 295.600,397.110 290.692,397.848 280.493 C 398.098 277.036,398.179 276.770,399.058 276.550 L 400.000 276.313 400.000 200.547 L 400.000 124.780 399.000 124.400 C 398.154 124.078,398.000 123.763,398.000 122.349 C 398.000 110.565,395.693 105.045,390.266 103.840 L 388.200 103.382 387.720 99.791 C 387.456 97.816,387.044 94.670,386.806 92.800 C 386.567 90.930,386.198 89.340,385.986 89.267 C 385.774 89.193,385.600 88.907,385.600 88.631 C 385.600 87.384,383.075 85.202,380.854 84.529 C 378.094 83.693,377.600 83.345,377.600 82.235 C 377.600 76.935,375.098 74.213,369.120 73.012 C 368.126 72.812,368.017 72.596,367.760 70.324 C 367.591 68.835,367.027 66.992,366.340 65.686 C 365.713 64.494,365.200 63.267,365.200 62.959 C 365.200 62.652,365.036 62.400,364.835 62.400 C 364.634 62.400,364.343 61.635,364.188 60.700 C 363.638 57.393,362.715 56.468,359.290 55.791 C 357.183 55.374,355.685 53.841,355.377 51.783 C 355.229 50.802,354.978 50.000,354.818 50.000 C 354.658 50.000,354.308 49.272,354.042 48.382 C 353.517 46.632,353.209 46.431,349.459 45.398 C 346.933 44.703,345.200 43.327,345.200 42.018 C 345.200 41.568,345.043 41.200,344.851 41.200 C 344.659 41.200,344.385 40.468,344.242 39.573 C 343.960 37.809,342.483 36.003,341.318 35.996 C 340.923 35.994,338.800 35.360,336.600 34.587 C 334.400 33.814,331.562 33.069,330.293 32.933 C 328.220 32.710,327.963 32.579,327.758 31.642 C 326.523 26.015,325.085 24.435,320.253 23.396 C 316.854 22.666,316.416 22.382,316.406 20.900 C 316.403 20.405,316.220 20.000,316.000 20.000 C 315.780 20.000,315.600 19.802,315.600 19.560 C 315.600 16.221,307.585 12.828,299.614 12.794 C 297.574 12.785,296.400 11.628,296.400 9.626 C 296.400 9.172,296.234 8.800,296.032 8.800 C 295.829 8.800,295.554 8.303,295.421 7.695 C 294.826 4.986,287.386 2.800,278.758 2.800 C 275.727 2.800,275.200 2.557,275.200 1.157 L 275.200 0.000 204.400 0.000 L 133.600 0.000 133.600 1.200 M231.600 8.816 C 247.334 9.263,250.468 9.852,253.800 12.990 C 256.933 15.942,259.948 16.938,272.600 19.204 C 278.262 20.218,281.090 21.441,282.821 23.626 C 284.434 25.663,286.295 26.729,292.200 28.997 C 298.269 31.328,298.698 31.548,299.960 32.976 C 303.404 36.874,303.695 37.072,307.872 38.360 C 311.633 39.521,316.799 42.494,316.800 43.499 C 316.802 44.499,320.892 47.921,325.200 50.527 C 327.098 51.676,328.476 52.830,328.951 53.671 C 329.363 54.402,330.938 56.993,332.451 59.429 C 335.206 63.869,335.568 64.964,334.772 66.452 C 333.450 68.922,326.902 76.759,324.316 78.965 C 322.671 80.369,320.449 82.709,319.380 84.166 C 318.311 85.622,316.061 87.894,314.381 89.215 C 312.701 90.535,310.391 92.770,309.246 94.180 C 308.102 95.590,305.689 97.938,303.883 99.396 C 302.077 100.855,299.880 102.914,299.000 103.972 C 296.873 106.529,295.483 107.351,293.758 107.071 C 291.593 106.719,281.820 101.241,278.463 98.496 C 271.840 93.082,270.591 92.244,265.687 89.915 C 262.895 88.590,259.477 86.696,258.092 85.708 C 255.035 83.527,251.737 82.110,245.382 80.250 C 242.733 79.475,239.060 78.196,237.221 77.409 C 228.363 73.618,218.890 72.230,201.800 72.221 C 183.938 72.211,178.394 73.034,165.800 77.570 C 161.620 79.075,157.120 80.610,155.800 80.981 C 150.901 82.358,148.503 83.446,144.403 86.152 C 142.092 87.677,138.437 89.692,136.282 90.629 C 132.351 92.339,130.603 93.428,128.000 95.794 C 127.230 96.493,125.340 97.946,123.800 99.021 C 117.906 103.138,102.873 118.398,99.383 123.808 C 98.223 125.607,96.186 128.305,94.856 129.802 C 93.074 131.810,92.102 133.374,91.154 135.762 C 89.518 139.881,87.963 143.017,86.146 145.857 C 83.733 149.629,82.512 152.679,80.225 160.641 C 79.018 164.843,77.562 169.523,76.989 171.041 C 71.977 184.332,71.791 213.916,76.630 228.200 C 77.599 231.060,79.290 236.534,80.389 240.365 C 82.586 248.030,83.577 250.395,86.900 255.906 C 88.129 257.944,89.626 260.914,90.226 262.506 C 91.932 267.029,92.693 268.316,95.338 271.154 C 96.694 272.609,98.523 275.046,99.402 276.569 C 101.409 280.047,104.127 283.049,107.353 285.351 C 108.731 286.335,110.353 287.787,110.956 288.578 C 113.563 291.996,114.830 291.785,116.379 287.673 C 117.643 284.317,119.885 281.325,123.329 278.400 C 125.013 276.970,127.224 274.815,128.243 273.612 C 129.261 272.408,131.526 270.273,133.276 268.867 C 135.026 267.460,137.362 265.159,138.467 263.752 C 139.573 262.346,142.035 259.881,143.938 258.274 C 147.603 255.181,152.800 247.795,152.800 245.679 C 152.800 244.328,152.372 243.654,147.164 236.794 C 141.667 229.554,141.432 229.066,139.049 219.936 C 138.053 216.121,136.690 211.223,136.019 209.051 C 134.354 203.655,134.278 197.474,135.815 192.370 C 136.373 190.517,137.806 185.271,138.998 180.714 C 141.614 170.710,141.176 171.590,148.270 162.107 C 152.788 156.068,154.646 153.923,156.912 152.128 C 158.501 150.871,161.687 148.329,163.993 146.480 C 168.385 142.958,171.128 141.370,174.800 140.225 C 176.010 139.848,180.870 138.258,185.600 136.692 L 194.200 133.845 200.013 133.681 C 207.603 133.467,212.746 134.250,217.764 136.383 C 219.764 137.233,223.920 138.681,227.000 139.601 C 236.338 142.390,238.071 143.596,242.154 150.147 C 244.373 153.708,244.710 155.039,243.825 156.751 C 242.668 158.989,236.711 165.733,232.600 169.459 C 227.770 173.836,221.245 180.574,218.409 184.113 C 217.267 185.539,215.163 187.671,213.734 188.852 C 212.305 190.034,210.526 191.744,209.780 192.653 C 209.034 193.561,204.234 198.520,199.112 203.671 C 193.990 208.823,189.095 213.929,188.234 215.019 C 187.373 216.109,185.342 218.080,183.721 219.400 C 182.100 220.720,180.106 222.610,179.291 223.600 C 178.475 224.590,176.005 227.200,173.803 229.400 C 171.601 231.600,169.020 234.350,168.068 235.511 C 167.116 236.672,165.316 238.371,164.068 239.287 C 157.147 244.367,156.826 245.576,161.269 249.849 C 167.873 256.201,171.808 258.674,178.600 260.738 C 180.800 261.407,185.300 262.807,188.600 263.849 C 198.520 266.981,208.427 266.809,217.384 263.350 C 219.361 262.587,222.551 261.520,224.471 260.980 C 232.622 258.688,234.698 257.705,237.971 254.586 C 242.970 249.822,245.230 249.150,250.851 250.757 C 255.296 252.029,256.269 252.680,259.217 256.360 C 260.733 258.252,262.990 260.608,264.232 261.596 C 265.475 262.584,267.635 264.763,269.032 266.438 C 270.429 268.113,272.253 269.987,273.086 270.602 C 273.919 271.218,276.580 273.719,279.000 276.160 C 281.420 278.602,284.346 281.376,285.502 282.324 C 288.157 284.501,288.783 285.731,289.425 290.028 C 290.272 295.699,289.598 297.200,284.817 300.279 C 283.176 301.335,280.385 303.559,278.614 305.221 C 275.970 307.702,274.431 308.731,269.998 310.980 C 267.029 312.487,263.610 314.388,262.400 315.204 C 257.984 318.185,253.411 319.942,243.600 322.428 C 241.070 323.069,236.480 324.408,233.400 325.404 C 215.124 331.311,190.055 331.499,172.400 325.860 C 167.358 324.250,160.072 322.124,154.511 320.642 C 147.809 318.855,145.734 317.953,142.241 315.307 C 140.692 314.133,138.430 312.710,137.213 312.144 C 130.808 309.166,129.164 308.211,126.600 305.981 C 125.060 304.642,121.984 301.960,119.764 300.021 C 114.145 295.114,114.829 295.314,109.429 296.999 C 104.288 298.604,102.551 299.854,98.614 304.777 C 97.460 306.220,95.487 308.210,94.229 309.200 C 92.971 310.190,90.861 312.350,89.540 314.000 C 88.219 315.650,85.937 317.954,84.469 319.121 C 83.001 320.287,80.180 322.939,78.200 325.014 C 69.301 334.340,62.463 335.307,56.600 328.071 C 55.500 326.714,53.884 325.107,53.009 324.501 C 49.942 322.379,49.193 321.350,47.587 317.057 C 46.732 314.773,45.452 313.417,42.461 311.632 C 40.834 310.661,39.200 307.879,39.200 306.080 C 39.200 304.529,36.374 299.622,34.719 298.299 C 30.868 295.219,30.041 293.783,28.772 287.969 C 27.545 282.346,26.329 280.345,22.701 277.978 C 20.684 276.662,19.715 274.434,19.202 269.933 C 17.548 255.421,15.920 249.523,12.762 246.604 C 8.891 243.026,8.737 241.531,8.591 206.200 C 8.398 159.697,8.569 157.845,13.559 152.468 C 16.220 149.600,17.617 144.371,18.975 132.200 C 19.726 125.471,20.206 124.133,22.436 122.543 C 26.806 119.427,27.847 117.576,29.150 110.608 C 29.795 107.150,31.383 104.147,33.156 103.028 C 36.212 101.099,38.216 98.011,39.425 93.368 C 40.182 90.462,41.255 89.099,43.628 88.026 C 45.885 87.006,46.762 85.914,47.905 82.702 C 49.105 79.327,50.587 77.016,52.646 75.311 C 53.650 74.480,55.802 72.152,57.428 70.137 C 60.843 65.908,65.234 61.453,69.800 57.583 C 71.560 56.091,74.165 53.676,75.588 52.215 C 77.169 50.593,78.948 49.217,80.160 48.679 C 85.572 46.280,86.133 45.883,87.523 43.474 C 89.026 40.871,90.382 39.872,93.366 39.169 C 97.292 38.245,100.806 35.779,102.375 32.847 C 102.977 31.721,107.896 29.434,111.889 28.422 C 116.803 27.177,120.400 25.066,120.400 23.428 C 120.400 21.445,124.575 19.752,131.873 18.777 C 142.411 17.369,146.230 16.129,149.000 13.215 C 152.247 9.800,154.898 9.242,169.800 8.834 C 183.478 8.461,218.692 8.450,231.600 8.816 " stroke="none" fill="#000000" fill-rule="evenodd"></path></g></svg>